{
   "accessors" : [
      {
         "bufferView" : 2,
         "byteOffset" : 0,
         "componentType" : 5126,
         "count" : 8207,
         "max" : [ 1, 0.7372047901153564, 0.8277258276939392, 1 ],
         "min" : [ 0, 0.08919350802898407, 0, 1 ],
         "name" : "accessor_color_m0-PolyPaper21_-494722",
         "type" : "VEC4"
      },
      {
         "bufferView" : 2,
         "byteOffset" : 131312,
         "componentType" : 5126,
         "count" : 911,
         "max" : [ 0.729918897151947, 0.7372047901153564, 0.8277258276939392, 1 ],
         "min" : [ 0, 0.006584956776350737, 0.006584956776350737, 1 ],
         "name" : "accessor_color_m2-PolyPaper22_-494734",
         "type" : "VEC4"
      },
      {
         "bufferView" : 0,
         "byteOffset" : 0,
         "componentType" : 5123,
         "count" : 12999,
         "max" : [ 8206 ],
         "min" : [ 0 ],
         "name" : "accessor_indices_0_m0-PolyPaper21_-494722",
         "type" : "SCALAR"
      },
      {
         "bufferView" : 0,
         "byteOffset" : 25998,
         "componentType" : 5123,
         "count" : 1425,
         "max" : [ 910 ],
         "min" : [ 0 ],
         "name" : "accessor_indices_0_m2-PolyPaper22_-494734",
         "type" : "SCALAR"
      },
      {
         "bufferView" : 1,
         "byteOffset" : 98484,
         "componentType" : 5126,
         "count" : 8207,
         "max" : [ 0.9993039, 0.9999678, 0.9993581 ],
         "min" : [ -0.9993039, -0.9999517, -0.9993581 ],
         "name" : "accessor_normal_m0-PolyPaper21_-494722",
         "type" : "VEC3"
      },
      {
         "bufferView" : 1,
         "byteOffset" : 207900,
         "componentType" : 5126,
         "count" : 911,
         "max" : [ 0.9985084, 0.9999678, 0.9993581 ],
         "min" : [ -0.9985084, -0.9999517, -0.9993581 ],
         "name" : "accessor_normal_m2-PolyPaper22_-494734",
         "type" : "VEC3"
      },
      {
         "bufferView" : 1,
         "byteOffset" : 0,
         "componentType" : 5126,
         "count" : 8207,
         "max" : [ 0.6964442, 1.333423, 0.913411 ],
         "min" : [ -1.268136, 0.2043551, -1.144441 ],
         "name" : "accessor_position_m0-PolyPaper21_-494722",
         "type" : "VEC3"
      },
      {
         "bufferView" : 1,
         "byteOffset" : 196968,
         "componentType" : 5126,
         "count" : 911,
         "max" : [ 0.7251381, 1.005477, 0.8467368 ],
         "min" : [ -1.254823, 0.2018349, -0.8935714 ],
         "name" : "accessor_position_m2-PolyPaper22_-494734",
         "type" : "VEC3"
      }
   ],
   "asset" : {
      "copyright" : "Unknown",
      "extras" : {
         "GOOGLE_processor_version" : 294144208
      },
      "generator" : "glTF 1-to-2 Upgrader for Google Blocks",
      "version" : "2.0"
   },
   "bufferViews" : [
      {
         "buffer" : 0,
         "byteLength" : 28848,
         "byteOffset" : 0,
         "name" : "ushortBufferView",
         "target" : 34963
      },
      {
         "buffer" : 0,
         "byteLength" : 218832,
         "byteOffset" : 28848,
         "byteStride" : 12,
         "name" : "vec3BufferView",
         "target" : 34962
      },
      {
         "buffer" : 0,
         "byteLength" : 145888,
         "byteOffset" : 247680,
         "byteStride" : 16,
         "name" : "vec4BufferView",
         "target" : 34962
      }
   ],
   "buffers" : [
      {
         "byteLength" : 393568,
         "name" : "model",
         "uri" : "model.bin"
      }
   ],
   "cameras" : [
      {
         "perspective" : {
            "yfov" : 0.7853981633974483,
            "znear" : 0.1000000014901161
         },
         "type" : "perspective"
      }
   ],
   "extensions" : {
      "KHR_lights_punctual" : {
         "lights" : [
            {
               "color" : [ 1, 0.9333333333333333, 0.8666666666666667 ],
               "intensity" : 0.25,
               "name" : "headLight",
               "type" : "directional"
            },
            {
               "color" : [ 1, 0.9333333333333333, 0.8666666666666667 ],
               "intensity" : 0.324999988079071,
               "name" : "keyLight",
               "type" : "directional"
            }
         ]
      }
   },
   "extensionsUsed" : [ "GOOGLE_backgrounds", "GOOGLE_camera_settings", "KHR_lights_punctual" ],
   "extras" : {
      "GOOGLE_initial_camera_motion" : {
         "motionPath" : "FULL_ROTATION"
      },
      "GOOGLE_lighting_rig" : {
         "disableShadows" : false
      }
   },
   "materials" : [
      {
         "alphaMode" : "OPAQUE",
         "doubleSided" : false,
         "name" : "BlocksPaper",
         "pbrMetallicRoughness" : {
            "baseColorFactor" : [ 1, 1, 1, 1 ],
            "metallicFactor" : 0,
            "roughnessFactor" : 0.6
         }
      },
      {
         "alphaMode" : "BLEND",
         "doubleSided" : false,
         "name" : "BlocksGlass",
         "pbrMetallicRoughness" : {
            "baseColorFactor" : [ 0.2, 0.2, 1, 0.3 ],
            "metallicFactor" : 1,
            "roughnessFactor" : 0.4
         }
      },
      {
         "alphaMode" : "OPAQUE",
         "doubleSided" : true,
         "name" : "BlocksGem",
         "pbrMetallicRoughness" : {
            "baseColorFactor" : [ 1, 0.4, 1, 1 ],
            "metallicFactor" : 0,
            "roughnessFactor" : 0.1
         }
      }
   ],
   "meshes" : [
      {
         "name" : "mesh_m0-PolyPaper21_-494722",
         "primitives" : [
            {
               "attributes" : {
                  "COLOR_0" : 0,
                  "NORMAL" : 4,
                  "POSITION" : 6
               },
               "indices" : 2,
               "material" : 0,
               "mode" : 4
            }
         ]
      },
      {
         "name" : "mesh_m2-PolyPaper22_-494734",
         "primitives" : [
            {
               "attributes" : {
                  "COLOR_0" : 1,
                  "NORMAL" : 5,
                  "POSITION" : 7
               },
               "indices" : 3,
               "material" : 0,
               "mode" : 4
            }
         ]
      }
   ],
   "nodes" : [
      {
         "mesh" : 0,
         "name" : "node_MeshObject-113123328-PolyPaper21"
      },
      {
         "mesh" : 1,
         "name" : "node_MeshObject1031034880-PolyPaper22"
      },
      {
         "children" : [ 3 ]
      },
      {
         "children" : [ 4 ],
         "extras" : {
            "isTransformNode" : 1
         },
         "translation" : [ -0.2909383009370596, 0.5913471178184607, -0.09648908211247408 ]
      },
      {
         "children" : [ 0, 1 ],
         "translation" : [ 0.2909383009370596, -0.5913471178184607, 0.09648908211247408 ]
      },
      {
         "camera" : 0,
         "children" : [ 6 ],
         "rotation" : [
            -0.2219240542792781,
            -0.2518950318538156,
            -0.05946428056213493,
            0.9400864887853888
         ],
         "translation" : [ -1.669838989339735, 1.970292773469647, 2.292078466395616 ]
      },
      {
         "extensions" : {
            "KHR_lights_punctual" : {
               "light" : 0
            }
         },
         "extras" : {
            "isHeadLight" : 1
         },
         "name" : "headLightNode",
         "translation" : [ -1.558633879898996, 0.779316939949498, 0.779316939949498 ]
      },
      {
         "extensions" : {
            "KHR_lights_punctual" : {
               "light" : 1
            }
         },
         "extras" : {
            "isKeyLight" : 1
         },
         "name" : "keyLightNode",
         "rotation" : [ -0.7505326882858236, -0.3752663441429118, 0, 0.5439447166468927 ],
         "scale" : [ 0, 0, 1.574220218697986 ],
         "translation" : [ -1.887047705831664, 3.921643604750243, -1.818679052789711 ]
      }
   ],
   "scene" : 0,
   "scenes" : [
      {
         "extensions" : {
            "GOOGLE_backgrounds" : {
               "color" : [ 0.3058823529411765, 0.203921568627451, 0.1803921568627451 ]
            },
            "GOOGLE_camera_settings" : {
               "pivot" : [ -0.2908940097479684, 0.5913477938778806, -0.09632849931612197 ]
            }
         },
         "extras" : {
            "GOOGLE_camera_index" : {
               "cameraIndex" : 0,
               "nodeIndex" : 5
            },
            "GOOGLE_geometry_data" : {
               "stats" : {
                  "centroid" : [ -0.3128274871336782, 0.773203167354271, -0.2444588340917244 ],
                  "radius" : 1.558633879898996,
                  "stdev" : 0.6385969463244585
               },
               "visualCenterPoint" : [ -0.2909383009370596, 0.5913471178184607, -0.09648908211247408 ]
            },
            "GOOGLE_hemi_light" : {
               "groundColor" : [ 0.3058823529411765, 0.203921568627451, 0.1803921568627451 ]
            }
         },
         "name" : "defaultScene",
         "nodes" : [ 2, 5, 7 ]
      }
   ]
}
